<svg xmlns="http://www.w3.org/2000/svg" xmlns:xlink="http://www.w3.org/1999/xlink" width="500" zoomAndPan="magnify" viewBox="0 0 375 262.499992" height="350" preserveAspectRatio="xMidYMid meet" version="1.0"><defs><g/></defs><g fill="#ffffff" fill-opacity="1"><g transform="translate(-5.814216, 184.014722)"><g><path d="M 6.933594 0 L 125.816406 0 C 149.386719 0 164.984375 -15.945312 164.984375 -36.914062 L 164.984375 -84.398438 C 164.984375 -105.367188 149.386719 -121.3125 125.816406 -121.3125 L 6.933594 -121.3125 Z M 35.875 -26.34375 L 35.875 -94.96875 L 125.816406 -94.96875 C 131.363281 -94.96875 136.042969 -90.464844 136.042969 -84.398438 L 136.042969 -36.914062 C 136.042969 -30.847656 131.363281 -26.34375 125.816406 -26.34375 Z M 35.875 -26.34375 "/></g></g></g><g fill="#ffffff" fill-opacity="1"><g transform="translate(166.094267, 184.014722)"><g><path d="M 6.933594 23.914062 L 35.875 23.914062 L 35.875 -145.226562 L 6.933594 -145.226562 Z M 6.933594 23.914062 "/></g></g></g><g fill="#ffffff" fill-opacity="1"><g transform="translate(208.898094, 184.014722)"><g><path d="M 6.933594 -121.3125 L 6.933594 0 L 33.273438 0 L 33.273438 -47.65625 L 136.042969 -47.65625 L 136.042969 0 L 164.984375 0 L 164.984375 -121.3125 L 136.042969 -121.3125 L 136.042969 -74 L 33.273438 -74 L 33.273438 -121.3125 Z M 6.933594 -121.3125 "/></g></g></g></svg>