<svg xmlns="http://www.w3.org/2000/svg" xmlns:xlink="http://www.w3.org/1999/xlink" width="500" zoomAndPan="magnify" viewBox="0 0 375 262.499992" height="350" preserveAspectRatio="xMidYMid meet" version="1.0"><defs><g/><clipPath id="25217ddcfa"><path d="M 0.355469 0 L 374.640625 0 L 374.640625 262 L 0.355469 262 Z M 0.355469 0 " clip-rule="nonzero"/></clipPath></defs><g clip-path="url(#25217ddcfa)"><path fill="#ffffff" d="M 0.355469 0 L 374.644531 0 L 374.644531 269.488281 L 0.355469 269.488281 Z M 0.355469 0 " fill-opacity="1" fill-rule="nonzero"/><path fill="#ffffff" d="M 0.355469 0 L 374.644531 0 L 374.644531 262 L 0.355469 262 Z M 0.355469 0 " fill-opacity="1" fill-rule="nonzero"/><path fill="#000000" d="M 0.355469 0 L 374.644531 0 L 374.644531 262 L 0.355469 262 Z M 0.355469 0 " fill-opacity="1" fill-rule="nonzero"/></g><g fill="#ffffff" fill-opacity="1"><g transform="translate(-2.473985, 180.996478)"><g><path d="M 6.8125 0 L 123.644531 0 C 146.804688 0 162.132812 -15.667969 162.132812 -36.277344 L 162.132812 -82.941406 C 162.132812 -103.546875 146.804688 -119.214844 123.644531 -119.214844 L 6.8125 -119.214844 Z M 35.253906 -25.886719 L 35.253906 -93.328125 L 123.644531 -93.328125 C 129.09375 -93.328125 133.691406 -88.898438 133.691406 -82.941406 L 133.691406 -36.277344 C 133.691406 -30.316406 129.09375 -25.886719 123.644531 -25.886719 Z M 35.253906 -25.886719 "/></g></g></g><g fill="#ffffff" fill-opacity="1"><g transform="translate(166.462552, 180.996478)"><g><path d="M 6.8125 23.503906 L 35.253906 23.503906 L 35.253906 -142.71875 L 6.8125 -142.71875 Z M 6.8125 23.503906 "/></g></g></g><g fill="#ffffff" fill-opacity="1"><g transform="translate(208.526381, 180.996478)"><g><path d="M 6.8125 -119.214844 L 6.8125 0 L 32.699219 0 L 32.699219 -46.835938 L 133.691406 -46.835938 L 133.691406 0 L 162.132812 0 L 162.132812 -119.214844 L 133.691406 -119.214844 L 133.691406 -72.722656 L 32.699219 -72.722656 L 32.699219 -119.214844 Z M 6.8125 -119.214844 "/></g></g></g></svg>