<svg xmlns="http://www.w3.org/2000/svg" xmlns:xlink="http://www.w3.org/1999/xlink" width="500" zoomAndPan="magnify" viewBox="0 0 375 112.499997" height="150" preserveAspectRatio="xMidYMid meet" version="1.0"><defs><g/></defs><g fill="#000000" fill-opacity="1"><g transform="translate(14.3195, 58.509523)"><g><path d="M 15.589844 0 L 55.800781 0 L 55.800781 -41.03125 L 46.011719 -41.03125 L 46.011719 -24.96875 L 15.589844 -24.96875 C 7.621094 -24.96875 2.34375 -19.578125 2.34375 -12.484375 C 2.34375 -5.390625 7.621094 0 15.589844 0 Z M 12.132812 -12.484375 C 12.132812 -14.535156 13.714844 -16.058594 15.589844 -16.058594 L 46.011719 -16.058594 L 46.011719 -8.910156 L 15.589844 -8.910156 C 13.714844 -8.910156 12.132812 -10.433594 12.132812 -12.484375 Z M 12.132812 -12.484375 "/></g></g></g><g fill="#000000" fill-opacity="1"><g transform="translate(72.403895, 58.509523)"><g><path d="M 15.589844 0 L 56.679688 0 L 56.679688 -24.96875 L 15.589844 -24.96875 C 7.621094 -24.96875 2.34375 -19.578125 2.34375 -12.484375 C 2.34375 -5.390625 7.621094 0 15.589844 0 Z M 12.132812 -12.484375 C 12.132812 -14.535156 13.714844 -16.058594 15.589844 -16.058594 L 46.890625 -16.058594 L 46.890625 -8.910156 L 15.589844 -8.910156 C 13.714844 -8.910156 12.132812 -10.433594 12.132812 -12.484375 Z M 12.132812 -12.484375 "/></g></g></g><g fill="#000000" fill-opacity="1"><g transform="translate(131.366512, 58.509523)"><g><path d="M 16.707031 0 L 38.390625 0 C 46.363281 0 50.9375 -5.390625 51.640625 -12.484375 L 52.753906 -24.96875 L 42.964844 -24.96875 L 41.792969 -12.484375 C 41.617188 -10.433594 40.269531 -8.910156 38.390625 -8.910156 L 16.707031 -8.910156 C 14.886719 -8.910156 13.480469 -10.433594 13.304688 -12.484375 L 12.132812 -24.96875 L 2.34375 -24.96875 L 3.515625 -12.484375 C 4.160156 -5.390625 8.734375 0 16.707031 0 Z M 16.707031 0 "/></g></g></g><g fill="#000000" fill-opacity="1"><g transform="translate(186.406149, 58.509523)"><g><path d="M 2.34375 0 L 12.132812 0 L 12.132812 -16.058594 L 42.554688 -16.058594 C 44.429688 -16.058594 46.011719 -14.535156 46.011719 -12.484375 L 46.011719 0 L 55.800781 0 L 55.800781 -12.484375 C 55.800781 -19.578125 50.527344 -24.96875 42.554688 -24.96875 L 12.132812 -24.96875 L 12.132812 -40.972656 L 2.34375 -40.972656 Z M 2.34375 0 "/></g></g></g><g fill="#000000" fill-opacity="1"><g transform="translate(244.490544, 58.509523)"><g><path d="M 15.589844 0 L 42.554688 0 C 50.527344 0 55.800781 -5.390625 55.800781 -12.484375 C 55.800781 -19.578125 50.527344 -24.96875 42.554688 -24.96875 L 15.589844 -24.96875 C 7.621094 -24.96875 2.34375 -19.578125 2.34375 -12.484375 C 2.34375 -5.390625 7.621094 0 15.589844 0 Z M 12.132812 -12.484375 C 12.132812 -14.535156 13.714844 -16.058594 15.589844 -16.058594 L 42.554688 -16.058594 C 44.429688 -16.058594 46.011719 -14.535156 46.011719 -12.484375 C 46.011719 -10.433594 44.429688 -8.910156 42.554688 -8.910156 L 15.589844 -8.910156 C 13.714844 -8.910156 12.132812 -10.433594 12.132812 -12.484375 Z M 12.132812 -12.484375 "/></g></g></g><g fill="#000000" fill-opacity="1"><g transform="translate(302.574939, 58.509523)"><g><path d="M 2.34375 -12.484375 L 2.34375 0 L 12.132812 0 L 12.132812 -12.484375 C 12.132812 -14.535156 13.714844 -16.058594 15.589844 -16.058594 L 42.554688 -16.058594 C 44.429688 -16.058594 46.011719 -14.535156 46.011719 -12.484375 L 46.011719 0 L 55.800781 0 L 55.800781 -12.484375 C 55.800781 -19.578125 50.527344 -24.96875 42.554688 -24.96875 L 15.589844 -24.96875 C 7.621094 -24.96875 2.34375 -19.578125 2.34375 -12.484375 Z M 2.34375 -12.484375 "/></g></g></g><g fill="#000000" fill-opacity="1"><g transform="translate(133.884506, 96.579358)"><g><path d="M 2 -15.359375 L 2.453125 -15.359375 L 9.0625 -5.984375 L 15.59375 -15.359375 L 16.03125 -15.359375 L 16.03125 0 L 14.46875 0 L 14.46875 -11.15625 L 9.234375 -3.671875 L 8.796875 -3.671875 L 3.5625 -11.046875 L 3.5625 0 L 2 0 Z M 2 -15.359375 "/></g></g></g><g fill="#000000" fill-opacity="1"><g transform="translate(162.942616, 96.579358)"><g><path d="M 2 -14.921875 L 9.6875 -14.921875 L 9.6875 -13.46875 L 3.5625 -13.46875 L 3.5625 -8.46875 L 8.234375 -8.46875 L 8.234375 -7.015625 L 3.5625 -7.015625 L 3.5625 -1.453125 L 9.796875 -1.453125 L 9.796875 0 L 2 0 Z M 2 -14.921875 "/></g></g></g><g fill="#000000" fill-opacity="1"><g transform="translate(185.09803, 96.579358)"><g><path d="M 2 -14.921875 L 5.34375 -14.921875 C 6.03125 -14.921875 6.660156 -14.820312 7.234375 -14.625 C 7.816406 -14.4375 8.316406 -14.164062 8.734375 -13.8125 C 9.148438 -13.46875 9.472656 -13.054688 9.703125 -12.578125 C 9.941406 -12.109375 10.0625 -11.585938 10.0625 -11.015625 C 10.0625 -10.335938 9.890625 -9.726562 9.546875 -9.1875 C 9.210938 -8.65625 8.734375 -8.21875 8.109375 -7.875 C 8.960938 -7.570312 9.640625 -7.097656 10.140625 -6.453125 C 10.648438 -5.804688 10.90625 -5.050781 10.90625 -4.1875 C 10.90625 -3.570312 10.78125 -3.015625 10.53125 -2.515625 C 10.28125 -2.015625 9.925781 -1.570312 9.46875 -1.1875 C 9.019531 -0.8125 8.476562 -0.519531 7.84375 -0.3125 C 7.21875 -0.101562 6.535156 0 5.796875 0 L 2 0 Z M 5.796875 -1.453125 C 6.859375 -1.453125 7.71875 -1.707031 8.375 -2.21875 C 9.03125 -2.726562 9.359375 -3.414062 9.359375 -4.28125 C 9.359375 -5.125 9.03125 -5.800781 8.375 -6.3125 C 7.71875 -6.820312 6.859375 -7.078125 5.796875 -7.078125 L 3.5625 -7.078125 L 3.5625 -1.453125 Z M 5.34375 -8.46875 C 6.3125 -8.46875 7.078125 -8.6875 7.640625 -9.125 C 8.210938 -9.570312 8.5 -10.175781 8.5 -10.9375 C 8.5 -11.707031 8.207031 -12.320312 7.625 -12.78125 C 7.050781 -13.238281 6.289062 -13.46875 5.34375 -13.46875 L 3.5625 -13.46875 L 3.5625 -8.46875 Z M 5.34375 -8.46875 "/></g></g></g><g fill="#000000" fill-opacity="1"><g transform="translate(208.366785, 96.579358)"><g><path d="M 2 -14.921875 L 3.5625 -14.921875 L 3.5625 -1.453125 L 9.578125 -1.453125 L 9.578125 0 L 2 0 Z M 2 -14.921875 "/></g></g></g><g fill="#000000" fill-opacity="1"><g transform="translate(229.965531, 96.579358)"><g><path d="M 2 -14.921875 L 9.6875 -14.921875 L 9.6875 -13.46875 L 3.5625 -13.46875 L 3.5625 -8.46875 L 8.234375 -8.46875 L 8.234375 -7.015625 L 3.5625 -7.015625 L 3.5625 -1.453125 L 9.796875 -1.453125 L 9.796875 0 L 2 0 Z M 2 -14.921875 "/></g></g></g></svg>